<svg width="21" height="30" viewBox="0 0 21 30" fill="none" xmlns="http://www.w3.org/2000/svg">
<path d="M12.2068 20.7291H5.7793C5.69056 19.3853 5.76662 18.2634 6.0075 17.3632C6.24837 16.4505 6.57165 15.6961 6.97733 15.1003C7.39569 14.4918 7.85842 14.0037 8.36552 13.636C8.8853 13.2557 9.38607 12.9324 9.86781 12.6662C10.3622 12.3873 10.7933 12.1211 11.1609 11.8675C11.5413 11.614 11.8011 11.297 11.9406 10.9167C12.0293 10.6885 12.0547 10.4286 12.0167 10.137C11.9786 9.83278 11.8455 9.54753 11.6173 9.2813C11.4018 9.01507 11.0722 8.79322 10.6285 8.61573C10.1974 8.42557 9.63328 8.33049 8.93601 8.33049C8.47962 8.33049 7.93449 8.37486 7.30061 8.4636C6.67941 8.53966 6.02651 8.66644 5.34193 8.84393C4.65734 9.00873 3.97909 9.21791 3.30718 9.47147C2.64794 9.71234 2.0521 9.99125 1.51964 10.3082L0.682923 2.85378C1.15199 2.57487 1.67811 2.28963 2.26128 1.99804C2.85712 1.69378 3.51002 1.42755 4.21996 1.19936C4.92991 0.958485 5.70324 0.761983 6.53996 0.609852C7.37667 0.457722 8.27678 0.381656 9.24027 0.381656C10.7996 0.381656 12.2702 0.597175 13.6521 1.02821C15.0466 1.45925 16.2636 2.09313 17.3032 2.92985C18.3428 3.76656 19.1668 4.79979 19.7753 6.02951C20.3838 7.24655 20.6881 8.64742 20.6881 10.2321C20.6881 11.4365 20.517 12.4063 20.1747 13.1416C19.8324 13.8642 19.395 14.4601 18.8625 14.9292C18.3301 15.3982 17.7342 15.7912 17.075 16.1082C16.4158 16.4251 15.7692 16.7737 15.1353 17.1541C14.5141 17.5217 13.9373 17.9781 13.4049 18.5232C12.8851 19.0684 12.4857 19.8037 12.2068 20.7291ZM13.1576 25.7494C13.1576 26.3073 13.0499 26.827 12.8344 27.3088C12.6188 27.7905 12.3273 28.2089 11.9596 28.5639C11.6046 28.9315 11.1863 29.2168 10.7045 29.4196C10.2228 29.6351 9.70934 29.7429 9.16421 29.7429C8.6064 29.7429 8.08662 29.6351 7.60487 29.4196C7.12312 29.2168 6.69842 28.9315 6.33078 28.5639C5.9758 28.2089 5.69056 27.7905 5.47504 27.3088C5.2722 26.827 5.17078 26.3073 5.17078 25.7494C5.17078 25.2043 5.2722 24.6845 5.47504 24.1901C5.69056 23.6957 5.9758 23.271 6.33078 22.916C6.69842 22.5484 7.12312 22.2568 7.60487 22.0413C8.08662 21.8257 8.6064 21.718 9.16421 21.718C9.70934 21.718 10.2228 21.8257 10.7045 22.0413C11.1863 22.2568 11.6046 22.5484 11.9596 22.916C12.3273 23.271 12.6188 23.6957 12.8344 24.1901C13.0499 24.6845 13.1576 25.2043 13.1576 25.7494Z" fill="#264653"/>
</svg>
