<svg width="34" height="34" viewBox="0 0 34 34" fill="none" xmlns="http://www.w3.org/2000/svg">
<path d="M17.1597 11.3423C14.1263 11.3423 11.6507 13.8284 11.6507 16.8748C11.6507 19.9212 14.1263 22.4072 17.1597 22.4072C20.1932 22.4072 22.6687 19.9212 22.6687 16.8748C22.6687 13.8284 20.1932 11.3423 17.1597 11.3423ZM33.6825 16.8748C33.6825 14.5838 33.7032 12.3135 33.5751 10.0266C33.447 7.37037 32.8436 5.01295 30.9094 3.07057C28.9712 1.12404 26.6279 0.522231 23.9829 0.393568C21.7016 0.264906 19.441 0.285658 17.1638 0.285658C14.8825 0.285658 12.6219 0.264906 10.3448 0.393568C7.69979 0.522231 5.35238 1.12819 3.41824 3.07057C1.47997 5.0171 0.880718 7.37037 0.752602 10.0266C0.624486 12.3176 0.64515 14.5879 0.64515 16.8748C0.64515 19.1616 0.624486 21.436 0.752602 23.7229C0.880718 26.3792 1.4841 28.7366 3.41824 30.679C5.35651 32.6255 7.69979 33.2273 10.3448 33.356C12.6261 33.4846 14.8867 33.4639 17.1638 33.4639C19.4451 33.4639 21.7058 33.4846 23.9829 33.356C26.6279 33.2273 28.9753 32.6213 30.9094 30.679C32.8477 28.7324 33.447 26.3792 33.5751 23.7229C33.7073 21.436 33.6825 19.1658 33.6825 16.8748ZM17.1597 25.3872C12.469 25.3872 8.68339 21.5855 8.68339 16.8748C8.68339 12.1641 12.469 8.36232 17.1597 8.36232C21.8504 8.36232 25.636 12.1641 25.636 16.8748C25.636 21.5855 21.8504 25.3872 17.1597 25.3872ZM25.9832 10.0017C24.888 10.0017 24.0036 9.11354 24.0036 8.01368C24.0036 6.91383 24.888 6.02565 25.9832 6.02565C27.0784 6.02565 27.9628 6.91383 27.9628 8.01368C27.9631 8.27485 27.9121 8.53351 27.8127 8.77486C27.7134 9.01621 27.5676 9.2355 27.3837 9.42017C27.1998 9.60484 26.9814 9.75127 26.7411 9.85106C26.5008 9.95085 26.2432 10.002 25.9832 10.0017Z" fill="#264653"/>
</svg>
